<svg width="19" height="20" viewBox="0 0 19 20" fill="none" xmlns="http://www.w3.org/2000/svg">
<g clip-path="url(#clip0_780_121)">
<path d="M8.3125 4.0625L8.90625 2.875L10.0938 2.28125L8.90625 1.6875L8.3125 0.5L7.71875 1.6875L6.53125 2.28125L7.71875 2.875L8.3125 4.0625ZM2.96875 6.4375L3.95809 4.45846L5.9375 3.46875L3.95809 2.47904L2.96875 0.5L1.97941 2.47904L0 3.46875L1.97941 4.45846L2.96875 6.4375ZM16.0312 11.1875L15.0419 13.1665L13.0625 14.1562L15.0419 15.146L16.0312 17.125L17.0206 15.146L19 14.1562L17.0206 13.1665L16.0312 11.1875ZM18.6519 3.99682L15.5032 0.848086C15.2716 0.615781 14.9677 0.5 14.6638 0.5C14.3598 0.5 14.0559 0.615781 13.824 0.848086L0.348086 14.324C-0.115781 14.7878 -0.115781 15.5397 0.348086 16.0032L3.49682 19.1519C3.72875 19.3838 4.03268 19.4996 4.33623 19.4996C4.64016 19.4996 4.94408 19.3838 5.17602 19.1519L18.6519 5.67564C19.1158 5.21252 19.1158 4.46031 18.6519 3.99682ZM13.339 8.05027L11.4497 6.16103L14.6634 2.94736L16.5526 4.8366L13.339 8.05027Z" fill="black"/>
</g>
<defs>
<clipPath id="clip0_780_121">
<rect width="19" height="19" fill="white" transform="translate(0 0.5)"/>
</clipPath>
</defs>
</svg>
