<svg width="56" height="56" viewBox="0 0 56 56" fill="none" xmlns="http://www.w3.org/2000/svg">
<g id="Linear / Astronomy / Star Ring">
<path id="Vector" d="M26.5887 27.3795C29.5082 26.55 30.9679 26.1352 31.7491 26.9164C32.5303 27.6976 32.1155 29.1573 31.286 32.0765L31.0713 32.8318C30.8354 33.6616 30.7176 34.0764 30.7733 34.4836C30.8291 34.8908 31.0522 35.2443 31.4983 35.9515L31.9045 36.5953C33.4746 39.0833 34.2596 40.3274 33.7248 41.345C33.19 42.3628 31.6894 42.4799 28.6885 42.7142L27.9122 42.7749C27.0594 42.8414 26.6331 42.8747 26.2602 43.0705C25.8873 43.2665 25.6106 43.6027 25.0567 44.2757L24.5524 44.8882C22.6032 47.2556 21.6287 48.4393 20.517 48.2869C19.4053 48.1348 18.8928 46.7474 17.8677 43.9728L17.6025 43.2548C17.3112 42.4664 17.1655 42.0723 16.8794 41.786C16.5932 41.4999 16.199 41.3543 15.4105 41.0629L14.6927 40.7978C11.918 39.7726 10.5307 39.2602 10.3785 38.1483C10.2263 37.0367 11.41 36.0623 13.7774 34.1131L14.3899 33.6088C15.0626 33.0549 15.399 32.7779 15.5949 32.4053C15.7908 32.0324 15.8241 31.6061 15.8907 30.7533L15.9513 29.977C16.1856 26.9761 16.3028 25.4755 17.3203 24.9407C18.3379 24.4059 19.582 25.1909 22.0703 26.761L22.714 27.167C23.4212 27.6133 23.7747 27.8364 24.1819 27.8922C24.5891 27.9479 25.0039 27.8299 25.8334 27.5942L26.5887 27.3795Z" fill="#219EBC" stroke="#1C274C" stroke-width="1.5"/>
<path id="Vector_2" d="M50.9347 46.6252C53.2941 41.5971 44.9387 30.2268 32.2722 21.2289C19.6057 12.231 7.42482 9.01295 5.0654 14.0411M50.9347 46.6252C49.7913 49.0619 46.341 49.5622 41.6468 48.406M50.9347 46.6252C52.179 43.9736 50.4433 39.558 46.6668 34.6568M50.9347 46.6252C49.464 49.7598 44.1762 49.6898 37.3334 47.0125M5.0654 14.0411C3.82111 16.6928 5.55687 21.1085 9.33342 26.0097M5.0654 14.0411C6.20885 11.6043 9.65908 11.1045 14.3534 12.2605M5.0654 14.0411C3.41585 17.5565 7.00373 24.172 13.6406 30.9095" stroke="#1C274C" stroke-width="1.5" stroke-linecap="round"/>
<path id="Vector_3" d="M44.089 7.92174C44.319 10.0786 45.2234 12.1005 46.6666 13.6842M44.089 7.92174C41.9171 9.71187 41.2185 10.0419 38.4824 10.5709M44.089 7.92174L44.8088 7M38.4824 10.5709C39.9256 12.1545 40.83 14.1765 41.0601 16.3333M38.4824 10.5709L37.3333 10.5322" stroke="#1C274C" stroke-width="1.5" stroke-linecap="round"/>
</g>
</svg>
