<svg width="20" height="19" viewBox="0 0 20 19" fill="none" xmlns="http://www.w3.org/2000/svg">
<path d="M4.54086 18.75V6.09941H0.252983V18.75H4.54086ZM2.39748 4.37115C3.89273 4.37115 4.82346 3.39973 4.82346 2.18578C4.7956 0.944456 3.89279 0 2.42585 0C0.95914 0 0 0.944475 0 2.18578C0 3.39979 0.930497 4.37115 2.36948 4.37115H2.39734H2.39748ZM6.91419 18.75H11.2021V11.6853C11.2021 11.3072 11.2299 10.9295 11.3432 10.6592C11.6531 9.90381 12.3587 9.12141 13.5432 9.12141C15.0948 9.12141 15.7155 10.2815 15.7155 11.9821V18.7499H20.0031V11.4962C20.0031 7.61042 17.8877 5.80241 15.0665 5.80241C12.7534 5.80241 11.7378 7.07032 11.1735 7.93389H11.2022V6.09915H6.91428C6.97055 7.28621 6.91428 18.7498 6.91428 18.7498L6.91419 18.75Z" fill="white"/>
</svg>
