<svg width="40" height="40" viewBox="0 0 40 40" fill="none" xmlns="http://www.w3.org/2000/svg">
<g clip-path="url(#clip0_192_234)">
<path d="M20 0C8.95469 0 0 8.95469 0 20C0 25.5234 2.23906 30.5234 5.85781 34.1422L2.04844 37.9516C1.29219 38.7078 1.82813 40 2.89688 40H20C31.0453 40 40 31.0453 40 20C40 8.95469 31.0453 0 20 0Z" fill="#FF4500"/>
<path d="M31.3375 23.9906C33.9169 23.9906 36.0079 21.8997 36.0079 19.3203C36.0079 16.741 33.9169 14.65 31.3375 14.65C28.7582 14.65 26.6672 16.741 26.6672 19.3203C26.6672 21.8997 28.7582 23.9906 31.3375 23.9906Z" fill="url(#paint0_radial_192_234)"/>
<path d="M8.6625 23.9906C11.2418 23.9906 13.3328 21.8997 13.3328 19.3203C13.3328 16.741 11.2418 14.65 8.6625 14.65C6.08316 14.65 3.99219 16.741 3.99219 19.3203C3.99219 21.8997 6.08316 23.9906 8.6625 23.9906Z" fill="url(#paint1_radial_192_234)"/>
<path d="M20.0109 33.3328C27.3744 33.3328 33.3437 28.8556 33.3437 23.3328C33.3437 17.8099 27.3744 13.3328 20.0109 13.3328C12.6474 13.3328 6.6781 17.8099 6.6781 23.3328C6.6781 28.8556 12.6474 33.3328 20.0109 33.3328Z" fill="url(#paint2_radial_192_234)"/>
<path d="M16.0688 22.3609C15.9906 24.0546 14.8656 24.6703 13.5578 24.6703C12.25 24.6703 11.25 23.8031 11.3281 22.1093C11.4063 20.4156 12.5313 19.2937 13.8391 19.2937C15.1469 19.2937 16.1469 20.6671 16.0688 22.3609Z" fill="#842123"/>
<path d="M28.6938 22.1079C28.7719 23.8016 27.7735 24.6688 26.4641 24.6688C25.1547 24.6688 24.0297 24.0547 23.9531 22.3594C23.875 20.6657 24.8735 19.2922 26.1828 19.2922C27.4922 19.2922 28.6172 20.4125 28.6938 22.1079Z" fill="#842123"/>
<path d="M23.9531 22.5078C24.0266 24.0937 25.0781 24.6687 26.3031 24.6687C27.5281 24.6687 28.4625 23.8078 28.3891 22.2218C28.3156 20.6359 27.2641 19.5984 26.0391 19.5984C24.8141 19.5984 23.8797 20.9218 23.9531 22.5078Z" fill="url(#paint3_radial_192_234)"/>
<path d="M16.0704 22.5078C15.9969 24.0937 14.9454 24.6687 13.7204 24.6687C12.4954 24.6687 11.561 23.8078 11.6344 22.2218C11.7079 20.6359 12.7594 19.5984 13.9844 19.5984C15.2094 19.5984 16.1438 20.9218 16.0704 22.5078Z" fill="url(#paint4_radial_192_234)"/>
<path d="M20.0109 25.8C18.3578 25.8 16.7734 25.8797 15.3078 26.025C15.0578 26.05 14.8984 26.3047 14.9953 26.5329C15.8156 28.4563 17.7515 29.8079 20.0109 29.8079C22.2703 29.8079 24.2046 28.4563 25.0265 26.5329C25.1234 26.3047 24.9656 26.05 24.714 26.025C23.2484 25.8797 21.664 25.8 20.0109 25.8Z" fill="#BBCFDA"/>
<path d="M20.0109 26.1672C18.3625 26.1672 16.7828 26.2485 15.3219 26.3969C15.0719 26.4219 14.9141 26.6813 15.0109 26.9125C15.8297 28.8672 17.7594 30.2391 20.0094 30.2391C22.2594 30.2391 24.1906 28.8657 25.0094 26.9125C25.1062 26.6813 24.9484 26.4219 24.6984 26.3969C23.2375 26.2485 21.6578 26.1672 20.0094 26.1672H20.0109Z" fill="white"/>
<path d="M20.011 25.9766C18.3891 25.9766 16.8344 26.0563 15.3953 26.2016C15.15 26.2266 14.9938 26.4813 15.0891 26.7094C15.8938 28.6328 17.7938 29.9844 20.011 29.9844C22.2282 29.9844 24.1266 28.6328 24.9328 26.7094C25.0282 26.4813 24.8719 26.2266 24.6266 26.2016C23.1891 26.0563 21.6344 25.9766 20.011 25.9766Z" fill="url(#paint5_radial_192_234)"/>
<path d="M27.314 11.9735C29.1417 11.9735 30.6234 10.4918 30.6234 8.66411C30.6234 6.83639 29.1417 5.35474 27.314 5.35474C25.4863 5.35474 24.0046 6.83639 24.0046 8.66411C24.0046 10.4918 25.4863 11.9735 27.314 11.9735Z" fill="url(#paint6_radial_192_234)"/>
<path d="M19.964 13.7547C19.5671 13.7547 19.2468 13.5891 19.2468 13.3329C19.2468 10.3672 21.6593 7.9563 24.6234 7.9563C25.0203 7.9563 25.3406 8.27817 25.3406 8.67349C25.3406 9.0688 25.0187 9.39067 24.6234 9.39067C22.45 9.39067 20.6812 11.1594 20.6812 13.3329C20.6812 13.5891 20.3593 13.7547 19.964 13.7547Z" fill="url(#paint7_radial_192_234)"/>
<path d="M15.1985 23.2922C15.1985 23.9063 14.5453 24.1813 13.7406 24.1813C12.936 24.1813 12.2828 23.9063 12.2828 23.2922C12.2828 22.6781 12.936 22.1813 13.7406 22.1813C14.5453 22.1813 15.1985 22.6781 15.1985 23.2922Z" fill="#FF6101"/>
<path d="M27.7406 23.2922C27.7406 23.9063 27.0875 24.1813 26.2828 24.1813C25.4781 24.1813 24.825 23.9063 24.825 23.2922C24.825 22.6781 25.4781 22.1813 26.2828 22.1813C27.0875 22.1813 27.7406 22.6781 27.7406 23.2922Z" fill="#FF6101"/>
<path d="M14.7469 21.6266C15.0334 21.6266 15.2656 21.3734 15.2656 21.061C15.2656 20.7486 15.0334 20.4954 14.7469 20.4954C14.4604 20.4954 14.2281 20.7486 14.2281 21.061C14.2281 21.3734 14.4604 21.6266 14.7469 21.6266Z" fill="#FFC49C"/>
<path d="M27.0766 21.6266C27.3631 21.6266 27.5954 21.3734 27.5954 21.061C27.5954 20.7486 27.3631 20.4954 27.0766 20.4954C26.7901 20.4954 26.5579 20.7486 26.5579 21.061C26.5579 21.3734 26.7901 21.6266 27.0766 21.6266Z" fill="#FFC49C"/>
</g>
<defs>
<radialGradient id="paint0_radial_192_234" cx="0" cy="0" r="1" gradientUnits="userSpaceOnUse" gradientTransform="translate(31.4081 16.8059) scale(9.35961 8.16476)">
<stop stop-color="#FEFFFF"/>
<stop offset="0.4" stop-color="#FEFFFF"/>
<stop offset="0.51" stop-color="#F9FCFC"/>
<stop offset="0.62" stop-color="#EDF3F5"/>
<stop offset="0.7" stop-color="#DEE9EC"/>
<stop offset="0.72" stop-color="#D8E4E8"/>
<stop offset="0.76" stop-color="#CCD8DF"/>
<stop offset="0.8" stop-color="#C8D5DD"/>
<stop offset="0.83" stop-color="#CCD6DE"/>
<stop offset="0.85" stop-color="#D8DBE2"/>
<stop offset="0.88" stop-color="#EDE3E9"/>
<stop offset="0.9" stop-color="#FFEBEF"/>
</radialGradient>
<radialGradient id="paint1_radial_192_234" cx="0" cy="0" r="1" gradientUnits="userSpaceOnUse" gradientTransform="translate(8.73309 16.8059) scale(9.35961 8.16476)">
<stop stop-color="#FEFFFF"/>
<stop offset="0.4" stop-color="#FEFFFF"/>
<stop offset="0.51" stop-color="#F9FCFC"/>
<stop offset="0.62" stop-color="#EDF3F5"/>
<stop offset="0.7" stop-color="#DEE9EC"/>
<stop offset="0.72" stop-color="#D8E4E8"/>
<stop offset="0.76" stop-color="#CCD8DF"/>
<stop offset="0.8" stop-color="#C8D5DD"/>
<stop offset="0.83" stop-color="#CCD6DE"/>
<stop offset="0.85" stop-color="#D8DBE2"/>
<stop offset="0.88" stop-color="#EDE3E9"/>
<stop offset="0.9" stop-color="#FFEBEF"/>
</radialGradient>
<radialGradient id="paint2_radial_192_234" cx="0" cy="0" r="1" gradientUnits="userSpaceOnUse" gradientTransform="translate(20.3667 15.4962) scale(28.2323 19.8227)">
<stop stop-color="#FEFFFF"/>
<stop offset="0.4" stop-color="#FEFFFF"/>
<stop offset="0.51" stop-color="#F9FCFC"/>
<stop offset="0.62" stop-color="#EDF3F5"/>
<stop offset="0.7" stop-color="#DEE9EC"/>
<stop offset="0.72" stop-color="#D8E4E8"/>
<stop offset="0.76" stop-color="#CCD8DF"/>
<stop offset="0.8" stop-color="#C8D5DD"/>
<stop offset="0.83" stop-color="#CCD6DE"/>
<stop offset="0.85" stop-color="#D8DBE2"/>
<stop offset="0.88" stop-color="#EDE3E9"/>
<stop offset="0.9" stop-color="#FFEBEF"/>
</radialGradient>
<radialGradient id="paint3_radial_192_234" cx="0" cy="0" r="1" gradientUnits="userSpaceOnUse" gradientTransform="translate(25.825 23.5892) rotate(180) scale(2.35881 3.46294)">
<stop stop-color="#FF6600"/>
<stop offset="0.5" stop-color="#FF4500"/>
<stop offset="0.7" stop-color="#FC4301"/>
<stop offset="0.82" stop-color="#F43F07"/>
<stop offset="0.92" stop-color="#E53812"/>
<stop offset="1" stop-color="#D4301F"/>
</radialGradient>
<radialGradient id="paint4_radial_192_234" cx="0" cy="0" r="1" gradientUnits="userSpaceOnUse" gradientTransform="translate(14.0923 23.5892) scale(2.35881 3.46294)">
<stop stop-color="#FF6600"/>
<stop offset="0.5" stop-color="#FF4500"/>
<stop offset="0.7" stop-color="#FC4301"/>
<stop offset="0.82" stop-color="#F43F07"/>
<stop offset="0.92" stop-color="#E53812"/>
<stop offset="1" stop-color="#D4301F"/>
</radialGradient>
<radialGradient id="paint5_radial_192_234" cx="0" cy="0" r="1" gradientUnits="userSpaceOnUse" gradientTransform="translate(20.0576 30.4543) scale(8.31753 5.48603)">
<stop stop-color="#172E35"/>
<stop offset="0.29" stop-color="#0E1C21"/>
<stop offset="0.73" stop-color="#030708"/>
<stop offset="1"/>
</radialGradient>
<radialGradient id="paint6_radial_192_234" cx="0" cy="0" r="1" gradientUnits="userSpaceOnUse" gradientTransform="translate(27.3925 5.32913) scale(7.30116 7.30116)">
<stop stop-color="#FEFFFF"/>
<stop offset="0.4" stop-color="#FEFFFF"/>
<stop offset="0.51" stop-color="#F9FCFC"/>
<stop offset="0.62" stop-color="#EDF3F5"/>
<stop offset="0.7" stop-color="#DEE9EC"/>
<stop offset="0.72" stop-color="#D8E4E8"/>
<stop offset="0.76" stop-color="#CCD8DF"/>
<stop offset="0.8" stop-color="#C8D5DD"/>
<stop offset="0.83" stop-color="#CCD6DE"/>
<stop offset="0.85" stop-color="#D8DBE2"/>
<stop offset="0.88" stop-color="#EDE3E9"/>
<stop offset="0.9" stop-color="#FFEBEF"/>
</radialGradient>
<radialGradient id="paint7_radial_192_234" cx="0" cy="0" r="1" gradientUnits="userSpaceOnUse" gradientTransform="translate(24.35 13.2885) scale(5.98442 5.98442)">
<stop offset="0.48" stop-color="#7A9299"/>
<stop offset="0.67" stop-color="#172E35"/>
<stop offset="0.75"/>
<stop offset="0.82" stop-color="#172E35"/>
</radialGradient>
<clipPath id="clip0_192_234">
<rect width="40" height="40" fill="white"/>
</clipPath>
</defs>
</svg>
