<svg width="253" height="23" viewBox="0 0 253 23" fill="none" xmlns="http://www.w3.org/2000/svg">
<g id="Group 115">
<g id="g13742">
<path id="path13688" d="M12.9167 0.582493H12.5024C12.4812 1.0644 12.225 1.27293 11.7442 1.27293C10.7787 1.27293 9.21717 0.101721 7.56121 0.101721C2.84971 0.101721 0 4.74282 0 8.83137C0 12.9465 2.71293 17.0127 7.2612 17.0127C10.0204 17.0127 11.0551 15.7046 11.7894 15.7046C12.2727 15.7046 12.5489 16.3034 12.6405 16.646H12.9859V11.0144H12.6405L12.5024 11.7966C12.1798 13.6596 10.4575 16.5996 7.49368 16.5996C4.87234 16.5996 3.86306 14.1404 3.86306 8.55517C3.86306 2.69784 5.24013 0.513411 7.56134 0.513411C10.1813 0.513411 12.1346 3.66052 12.5024 6.0069H12.9168L12.9167 0.582493Z" fill="#808080"/>
<path id="path13690" d="M25.4485 14.6946H25.0409C25.0409 15.2857 24.7913 15.9655 24.2468 15.9655C23.839 15.9655 23.7275 15.5352 23.7275 14.8329V9.61677C23.7275 7.03269 21.3001 6.39662 18.9656 6.39662C16.6989 6.39662 15.0429 7.50935 15.0429 8.77754C15.0429 9.57302 15.4958 10.2516 16.5157 10.2516C17.3775 10.2516 17.8993 9.68585 17.8993 8.89037C17.8993 7.80424 16.768 7.87063 16.7426 7.48542C16.7228 6.98625 18.0361 6.80688 18.8076 6.80688C20.5061 6.80688 20.7344 7.64215 20.7344 9.00462V10.9075L18.5114 11.0894C16.4506 11.2488 14.2051 11.7933 14.2051 14.1503C14.2051 16.1236 15.9725 16.9189 17.7188 16.9189C18.6018 16.9189 20.1661 16.5764 20.7569 15.4901C21.1646 16.4409 22.004 16.9189 23.0224 16.9189C24.4965 16.9189 25.4485 16.0331 25.4485 14.6946ZM20.7344 13.9484C20.6892 15.1503 20.0067 16.2364 18.9431 16.2364C17.4014 16.2364 17.3348 14.8328 17.3348 13.6536C17.3348 12.4492 17.4691 11.6565 18.9431 11.4984L20.7344 11.3165V13.9484Z" fill="#808080"/>
<path id="path13692" d="M25.5752 16.6475H32.3557V16.2385H30.2694V10.4528C30.2694 8.70792 30.8139 7.48349 32.2426 6.84742H32.333C31.9479 7.25514 31.7887 7.61642 31.7887 8.18341C31.7887 9.06907 32.446 9.65858 33.3303 9.65858C34.4192 9.65858 35.054 8.86862 35.054 8.00405C35.054 6.91396 34.3276 6.25665 33.2625 6.25665C31.8111 6.25665 30.6997 7.25513 30.2694 8.38925H30.2243V6.07599C29.7476 6.66422 28.0704 6.66421 27.1408 6.66421H25.5752V7.07052H27.141V16.2385H25.5752V16.6475Z" fill="#808080"/>
<path id="path13694" d="M35.4092 16.6475H41.438V16.2385H40.1007V10.0226C40.1007 8.86861 41.2347 7.20998 42.503 7.20998C43.1604 7.20998 43.8429 7.48362 43.8429 9.06906V16.2385H42.5495V16.6475H48.5331V16.2385H46.9688V9.90972C46.9688 7.45971 45.9263 6.39339 43.7725 6.39339C42.256 6.39339 40.7581 7.1862 40.1459 8.50068H40.1007V6.07599C39.6241 6.66422 37.9495 6.66421 37.0187 6.66421H35.4092V7.07052H36.9735V16.2385H35.4092V16.6475Z" fill="#808080"/>
<path id="path13696" d="M51.8362 11.1599H58.0946C58.0721 8.71114 55.8041 6.35413 53.4231 6.3966C50.75 6.3966 48.4341 8.71128 48.4341 11.7706C48.4341 14.7187 50.588 16.9189 53.4922 16.9189C56.2807 16.9189 57.6644 15.1941 58.1625 12.9485H57.7548C57.2569 15.0586 55.9408 16.3732 54.172 16.3732C52.0633 16.3732 51.8361 14.6044 51.8361 13.064L51.8362 11.1599ZM51.8362 10.7495V8.80145C51.8362 7.28099 52.4948 6.80702 53.2651 6.80702C54.3512 6.80702 54.6939 7.55309 54.6939 8.80145V10.7495H51.8362Z" fill="#808080"/>
<path id="path13698" d="M69.3535 7.41942C69.3535 6.62393 68.493 6.21764 67.8118 6.21764C67.0654 6.21764 66.4984 6.71694 66.0655 7.21485C65.4069 6.73946 64.5026 6.39687 63.2331 6.39687C61.329 6.39687 59.2865 7.64382 59.2865 9.70876C59.2865 10.9543 59.9677 11.929 61.1694 12.4735V12.5172C60.2851 12.6301 58.9014 13.2435 58.9014 15.1252C58.9014 16.2565 59.4233 17.1197 60.3755 17.3932V17.4371C59.4684 17.684 58.426 18.5909 58.426 19.6798C58.426 21.357 60.3993 22.6504 62.9157 22.6504C66.0657 22.6504 68.1305 20.519 68.1305 17.7543C68.1305 15.554 67.0417 14.5581 64.82 14.6033H61.0553C60.4883 14.6033 59.7182 14.5806 59.7182 13.9699C59.7182 13.4015 60.6941 12.7906 61.5546 12.7906C61.8042 12.7906 62.0525 12.8583 62.3035 12.9247C62.5745 13.0163 62.8693 13.0628 63.2331 13.0628C65.1825 13.0628 67.2673 11.9501 67.2673 9.79753C67.2673 9.07255 66.9287 8.05394 66.294 7.50961C66.7018 7.10188 66.9062 6.60129 67.7904 6.48974V6.53491C67.3138 6.78322 67.1784 7.07796 67.1784 7.53339C67.1784 8.05394 67.5408 8.57592 68.2194 8.57592C68.9471 8.57592 69.3535 8.03029 69.3535 7.41942ZM60.7394 17.4596H64.2982C66.5649 17.4596 67.3137 17.6627 67.3137 19.0464C67.3137 20.701 65.2741 22.2414 62.9835 22.2414C60.9424 22.2414 59.8335 20.8591 59.7858 19.7728C59.7858 18.7742 60.1258 18.1169 60.7394 17.4596ZM64.6845 9.70861C64.6606 12.4958 64.071 12.6538 63.2556 12.6538C62.3487 12.6538 61.872 12.3591 61.872 9.63826C61.872 7.80436 62.0764 6.80713 63.2556 6.80713C64.3206 6.80713 64.6606 7.10188 64.6845 9.70861Z" fill="#808080"/>
<path id="path13700" d="M69.7065 16.6475H75.969V16.2385H74.4033V6.07599C73.9266 6.66422 72.2468 6.66421 71.3185 6.66421H69.7065V7.07052H71.2709V16.2385H69.7065V16.6475Z" fill="#808080"/>
<path id="path13702" d="M71.2193 3.15542C71.2193 4.05439 71.9377 4.77539 72.8379 4.77539C73.7383 4.77539 74.4569 4.05439 74.4569 3.15542C74.4569 2.25645 73.7383 1.53798 72.8379 1.53798C72.6252 1.53687 72.4143 1.57794 72.2175 1.65882C72.0207 1.7397 71.8419 1.85876 71.6914 2.00916C71.5409 2.15956 71.4216 2.33829 71.3406 2.53504C71.2595 2.73178 71.2183 2.94265 71.2193 3.15542Z" fill="#808080"/>
<path id="path13704" d="M79.3708 11.1599H85.6267C85.6067 8.71114 83.3373 6.35413 80.9562 6.3966C78.282 6.3966 75.9673 8.71128 75.9673 11.7706C75.9673 14.7187 78.1253 16.9189 81.0241 16.9189C83.814 16.9189 85.199 15.1941 85.6957 12.9485H85.2879C84.79 15.0586 83.4754 16.3732 81.7053 16.3732C79.5979 16.3732 79.3708 14.6044 79.3708 13.064V11.1599ZM79.3708 10.7495V8.80145C79.3708 7.28099 80.0281 6.80702 80.7997 6.80702C81.8872 6.80702 82.2271 7.55309 82.2271 8.80145V10.7495H79.3708Z" fill="#808080"/>
<path id="path13706" d="M89.5972 16.6475H93.994V16.2397H93.6767C92.4522 16.2397 91.9769 15.9225 91.9769 14.0859V1.23572H92.0233L97.4386 16.6475H98.0521L103.332 1.50795H103.377V16.2397H101.426V16.6475H108.612V16.2397H106.912V1.09896H108.612V0.691226H103.15L99.319 11.6398H99.2737L95.5117 0.691226H89.7101V1.09896H91.4311V14.2919C91.4311 15.2665 91.2053 16.2399 89.6875 16.2399H89.5972V16.6475Z" fill="#808080"/>
<path id="path13708" d="M111.785 11.1599H118.042C118.021 8.71114 115.753 6.35413 113.372 6.3966C110.697 6.3966 108.383 8.71128 108.383 11.7706C108.383 14.7187 110.538 16.9189 113.442 16.9189C116.228 16.9189 117.614 15.1941 118.111 12.9485H117.704C117.207 15.0586 115.891 16.3732 114.121 16.3732C112.011 16.3732 111.785 14.6044 111.785 13.064L111.785 11.1599ZM111.785 10.7495V8.80145C111.785 7.28099 112.442 6.80702 113.214 6.80702C114.303 6.80702 114.643 7.55309 114.643 8.80145V10.7495H111.785Z" fill="#808080"/>
<path id="path13710" d="M118.102 16.6475H124.365V16.2397H122.799V0.000808716C122.39 0.680629 121.142 0.68062 119.531 0.68062H118.102V1.08976H119.669V16.2397H118.102V16.6475Z" fill="#808080"/>
<path id="path13712" d="M124.762 16.6475H131.025V16.2397H129.46V0.000808716C129.05 0.680629 127.803 0.68062 126.193 0.68062H124.762V1.08976H126.327V16.2397H124.762V16.6475Z" fill="#808080"/>
<path id="path13714" d="M141.558 11.6565C141.558 8.55185 139.155 6.3966 136.162 6.3966C133.17 6.3966 130.766 8.55185 130.766 11.6565C130.766 14.7638 133.17 16.9189 136.162 16.9189C139.155 16.9189 141.558 14.7638 141.558 11.6565ZM138.02 14.1051C138.02 15.8075 137.319 16.5087 136.162 16.5087C135.007 16.5087 134.303 15.8075 134.303 14.1051V9.20776C134.303 7.50934 135.007 6.80686 136.162 6.80686C137.319 6.80686 138.02 7.50933 138.02 9.20789V14.1051Z" fill="#808080"/>
<path id="path13716" d="M141.572 16.6475H147.602V16.2385H146.266V10.0226C146.266 8.86861 147.4 7.20998 148.67 7.20998C149.326 7.20998 150.007 7.48362 150.007 9.06906V16.2385H148.712V16.6475H154.7V16.2385H153.133V9.90972C153.133 7.45971 152.092 6.39339 149.938 6.39339C148.42 6.39339 146.923 7.1862 146.31 8.50068H146.266V6.07599C145.791 6.66422 144.112 6.66421 143.183 6.66421H141.572V7.07052H143.138V16.2385H141.572V16.6475Z" fill="#808080"/>
<path id="path13718" d="M157.856 1.0984H159.625V11.3672C159.625 14.8795 162.047 17.0107 165.744 17.0107C169.914 17.0107 171.727 14.8105 171.727 11.4773V3.00265C171.727 1.68803 172.089 1.09853 172.906 1.09853H173.495V0.690815H169.008V1.09853H169.666C170.822 1.09853 171.185 1.68803 171.185 3.00265V11.6168C171.185 14.6962 169.324 16.1927 167.125 16.1927C163.816 16.1927 163.16 13.9725 163.16 11.0723V1.0984H164.995V0.690664H157.856V1.0984Z" fill="#808080"/>
<path id="path13720" d="M172.614 16.6475H178.643V16.2385H177.307V10.0226C177.307 8.86861 178.437 7.20998 179.706 7.20998C180.366 7.20998 181.045 7.48362 181.045 9.06906V16.2385H179.754V16.6475H185.738V16.2385H184.176V9.90972C184.176 7.45971 183.131 6.39339 180.978 6.39339C179.461 6.39339 177.963 7.1862 177.352 8.50068H177.307V6.07599C176.829 6.66422 175.153 6.66421 174.221 6.66421H172.614V7.07052H174.175V16.2385H172.614V16.6475Z" fill="#808080"/>
<path id="path13722" d="M186.07 16.6475H192.332V16.2385H190.768V6.07599C190.29 6.66422 188.613 6.66421 187.68 6.66421H186.07V7.07052H187.638V16.2385H186.07V16.6475Z" fill="#808080"/>
<path id="path13724" d="M187.582 3.15542C187.582 4.05439 188.303 4.77539 189.203 4.77539C190.101 4.77539 190.819 4.05439 190.819 3.15542C190.819 2.25645 190.101 1.53798 189.203 1.53798C188.302 1.53798 187.582 2.25645 187.582 3.15542Z" fill="#808080"/>
<path id="path13726" d="M196.925 16.9189H197.537L200.892 8.98211C201.459 7.71265 201.934 7.10035 202.456 7.07784H202.662V6.6687H199.124V7.07784H199.557C200.213 7.07784 200.598 7.32616 200.598 7.9158C200.598 8.28105 200.486 8.77754 200.213 9.4122L198.672 13.0402L196.018 7.07784H197.379V6.6687H191.689V7.07784H192.664L196.925 16.9189Z" fill="#808080"/>
<path id="path13728" d="M205.147 11.1599H211.406C211.385 8.71114 209.117 6.35413 206.737 6.3966C204.06 6.3966 201.747 8.71128 201.747 11.7706C201.747 14.7187 203.902 16.9189 206.806 16.9189C209.593 16.9189 210.976 15.1941 211.475 12.9485H211.07C210.568 15.0586 209.255 16.3732 207.486 16.3732C205.376 16.3732 205.304 14.6044 205.304 13.064L205.147 11.1599ZM205.147 10.7495V8.80145C205.147 7.28099 205.806 6.80702 206.578 6.80702C207.665 6.80702 208.004 7.55309 208.004 8.80145V10.7495H205.147Z" fill="#808080"/>
<path id="path13730" d="M211.459 16.6475H218.238V16.2385H216.153V10.4528C216.153 8.70792 216.698 7.48349 218.127 6.84742H218.217C217.832 7.25514 217.673 7.61642 217.673 8.18341C217.673 9.06907 218.328 9.65858 219.214 9.65858C220.303 9.65858 220.938 8.86862 220.938 8.00405C220.938 6.91396 220.213 6.25665 219.145 6.25665C217.695 6.25665 216.584 7.25513 216.153 8.38925H216.108V6.07599C215.631 6.66422 213.954 6.66421 213.025 6.66421H211.459V7.07052H213.025V16.2385H211.459L211.459 16.6475Z" fill="#808080"/>
<path id="path13732" d="M221.43 16.9189H221.839C221.953 16.5537 222.316 16.3732 222.77 16.3732C223.358 16.3732 224.061 16.9189 225.332 16.9189C227.487 16.9189 228.96 15.0586 228.96 13.1995C228.96 10.4335 227.057 10.2289 224.628 9.889C223.358 9.70708 222.566 9.50251 222.566 8.50401C222.566 7.43898 223.495 6.80688 224.72 6.80688C226.419 6.80688 227.328 8.14289 227.896 9.61677H228.257L228.12 6.3966H227.781C227.781 6.66884 227.511 6.89593 227.078 6.89593C226.352 6.89593 225.762 6.3966 224.72 6.3966C222.453 6.3966 221.343 8.32607 221.343 9.77617C221.343 12.7016 223.563 12.9485 225.285 13.153C226.92 13.3589 227.6 13.5155 227.6 14.5593C227.6 15.7623 226.604 16.5087 225.377 16.5087C223.655 16.5087 222.248 14.7638 221.839 13.1091H221.43V16.9189Z" fill="#808080"/>
<path id="path13734" d="M229.36 16.6475H235.62V16.2385H234.057V6.07599C233.58 6.66422 231.902 6.66421 230.972 6.66421H229.36V7.07052H230.927V16.2385H229.36V16.6475Z" fill="#808080"/>
<path id="path13736" d="M230.875 3.15542C230.875 4.05439 231.591 4.77539 232.491 4.77539C233.393 4.77539 234.111 4.05439 234.111 3.15542C234.111 2.25645 233.393 1.53798 232.491 1.53798C231.591 1.53798 230.875 2.25645 230.875 3.15542Z" fill="#808080"/>
<path id="path13738" d="M236.518 7.07911V14.3336C236.518 16.4874 238.377 16.9189 239.012 16.9189C240.396 16.9189 241.325 16.352 242.029 15.1728L241.736 15.0134C241.462 15.4211 241.097 15.9669 240.531 15.9669C239.943 15.9669 239.648 15.5352 239.648 14.789V7.07911H241.736V6.6728H239.648V1.79812H239.239C239.239 4.20156 237.606 6.6728 235.315 6.6728V7.07911H236.518Z" fill="#808080"/>
<path id="path13740" d="M241.659 7.0789H242.61L246.961 17.1644L246.827 18.07C246.735 18.7287 246.281 21.3141 245.534 21.5385V21.4721C245.624 21.1535 245.648 20.9065 245.648 20.7019C245.648 19.9304 245.105 19.3409 244.15 19.3409C243.154 19.3409 242.656 20.0221 242.656 20.8826C242.656 21.8121 243.518 22.4707 244.513 22.4707C246.305 22.4707 246.758 20.4961 246.961 19.5453L247.575 16.7806L248.754 13.8339L250.997 8.77733C251.497 7.62467 251.949 7.0789 252.448 7.0789H252.63V6.66992H249.095V7.07905H249.571C250.294 7.07905 250.613 7.4879 250.613 7.87297C250.613 8.32316 250.317 9.0735 249.956 9.93396L248.641 13.04L245.988 7.0789H247.484V6.66992H241.659V7.0789Z" fill="#808080"/>
</g>
</g>
</svg>
