<svg width="53" height="23" viewBox="0 0 53 23" fill="none" xmlns="http://www.w3.org/2000/svg">
<g id="Group 111">
<path id="Vector" d="M34.3823 0.000132121C34.3113 0.000132121 34.2406 0.0177042 34.1696 0.0517386L32.3649 0.738689C32.171 0.809691 32.0299 0.866609 31.9417 0.910526C31.8538 0.954787 31.8101 1.02085 31.8101 1.10871C31.8101 1.23224 31.8756 1.31215 32.0077 1.34716C32.1395 1.38217 32.2901 1.4304 32.4572 1.49218C32.6247 1.55396 32.7746 1.65997 32.9067 1.80958C33.0392 1.95954 33.1049 2.21062 33.1049 2.56307V15.8346C33.1049 16.1164 33.0738 16.3279 33.012 16.4689C32.9506 16.6096 32.8581 16.7162 32.7349 16.7868C32.6113 16.8568 32.4699 16.9097 32.3117 16.9447C32.1531 16.9798 31.9861 17.0239 31.81 17.0774C31.6693 17.1121 31.5549 17.152 31.4663 17.1956C31.3781 17.2399 31.3342 17.3236 31.3342 17.4474C31.3342 17.5703 31.4179 17.645 31.585 17.6714C31.7525 17.6972 31.8803 17.7112 31.9685 17.7112C32.1977 17.7112 32.4936 17.6943 32.8546 17.6606C33.2166 17.6269 33.5573 17.6095 33.877 17.6095C34.1782 17.6095 34.4701 17.6269 34.7528 17.6606C35.0362 17.6943 35.3365 17.7112 35.6539 17.7112C35.7949 17.7112 35.9312 17.6932 36.0637 17.6585C36.1955 17.6232 36.2618 17.5533 36.2618 17.4479C36.2618 17.3244 36.1866 17.2501 36.0373 17.224C35.8877 17.1975 35.7065 17.1489 35.4955 17.0779C35.3716 17.0435 35.2439 16.9689 35.1115 16.855C34.9797 16.7403 34.9144 16.534 34.9144 16.2351V12.4918C34.9144 12.4042 34.9759 12.3597 35.0991 12.3597C35.152 12.3597 35.2315 12.4128 35.3375 12.5181L39.3276 16.2875C39.5211 16.4811 39.6176 16.622 39.6176 16.7092C39.6176 16.7974 39.5694 16.8766 39.4726 16.9466C39.3752 17.0169 39.2572 17.0608 39.1155 17.0777C38.8866 17.1133 38.7017 17.1533 38.5607 17.1969C38.42 17.2412 38.3501 17.3242 38.3501 17.4477C38.3501 17.5709 38.411 17.6448 38.5349 17.6712C38.6581 17.697 38.8606 17.7109 39.1423 17.7109C39.4591 17.7109 39.7761 17.6941 40.0935 17.6604C40.4102 17.6267 40.7454 17.6093 41.0978 17.6093C41.5031 17.6093 41.873 17.6267 42.2079 17.6604C42.5425 17.6941 42.851 17.7109 43.1328 17.7109C43.5909 17.7109 43.8197 17.6233 43.8197 17.4472C43.8197 17.3593 43.7629 17.2884 43.6483 17.2356C43.5334 17.1831 43.3795 17.1175 43.1859 17.0379C42.992 16.9587 42.767 16.8572 42.5114 16.734C42.2557 16.6101 41.9963 16.4261 41.732 16.1797L37.1604 12.0324C37.1247 11.9977 37.0804 11.9492 37.0283 11.8874C36.9751 11.8256 36.9488 11.7511 36.9488 11.6629C36.9488 11.5925 37.1779 11.4033 37.6357 11.0951C38.0935 10.787 38.618 10.4572 39.2082 10.1048C39.7985 9.75265 40.3706 9.42256 40.9258 9.11438C41.4807 8.80622 41.8551 8.60835 42.0494 8.51983C42.1369 8.48482 42.2557 8.44505 42.406 8.40113C42.5532 8.35816 42.6989 8.30979 42.8426 8.25612C42.983 8.20359 43.1013 8.14603 43.1987 8.08425C43.2955 8.0225 43.3437 7.95644 43.3437 7.88607C43.3437 7.74536 43.2915 7.65684 43.1858 7.62183C43.0798 7.58682 42.9654 7.56867 42.8425 7.56867C42.5777 7.56867 42.2648 7.57765 41.9038 7.59448C41.5424 7.61131 41.1937 7.62027 40.8597 7.62027C40.5067 7.62027 40.1501 7.61131 39.7894 7.59448C39.4283 7.57762 39.1068 7.56867 38.8248 7.56867C38.7366 7.56867 38.6533 7.59562 38.574 7.64815C38.4947 7.70134 38.4553 7.76275 38.4553 7.83344C38.4553 7.93945 38.5074 8.02319 38.6137 8.08528C38.7191 8.14672 38.8339 8.2081 38.9574 8.26954C39.081 8.33129 39.1948 8.41086 39.3011 8.50797C39.4062 8.60508 39.459 8.74203 39.459 8.91775C39.459 9.00628 39.3576 9.13375 39.1551 9.3012C38.9526 9.46833 38.702 9.65835 38.4021 9.86942C38.1032 10.0815 37.7725 10.3015 37.4112 10.531C37.0498 10.7603 36.7111 10.9671 36.394 11.1524C36.0769 11.3377 35.7993 11.4873 35.5615 11.6019C35.3237 11.7165 35.1871 11.7738 35.1517 11.7738C34.9935 11.7738 34.9143 11.6327 34.9143 11.3506V0.476376C34.9143 0.282475 34.8837 0.154846 34.8209 0.0934096C34.7595 0.0313127 34.6927 0 34.6217 0L34.3823 0.000132121ZM7.67021 1.27492C6.82298 1.27492 6.06892 1.29991 5.40765 1.35075C4.74573 1.40196 4.08883 1.42767 3.43616 1.42767H1.03064C0.942123 1.42767 0.841104 1.43166 0.726133 1.4406C0.614895 1.44888 0.504569 1.46666 0.396361 1.49374C0.290664 1.5205 0.19818 1.56495 0.119225 1.62638C0.0392926 1.68814 0 1.77151 0 1.8772C0 2.01826 0.0567324 2.10263 0.171334 2.12905C0.285961 2.15516 0.493152 2.18592 0.792695 2.22093C0.968415 2.23877 1.15761 2.25227 1.36042 2.26117C1.55504 2.26923 1.74915 2.28681 1.94206 2.31384C2.12669 2.34026 2.28074 2.38439 2.40395 2.44649C2.52749 2.5079 2.58921 2.60006 2.58921 2.7236V15.1559C2.58921 15.5437 2.55412 15.843 2.48344 16.0544C2.41307 16.2665 2.3209 16.4287 2.20628 16.5437C2.09167 16.6583 1.96405 16.7381 1.82334 16.7821C1.68229 16.8263 1.54118 16.8575 1.40016 16.875C0.994865 16.9453 0.730968 17.0335 0.607436 17.1392C0.483904 17.2446 0.422679 17.3509 0.422679 17.4566C0.422679 17.5927 0.483904 17.6689 0.607436 17.6858C0.730968 17.7026 0.827284 17.7111 0.897995 17.7111C1.21508 17.7111 1.59363 17.6942 2.03394 17.6605C2.47456 17.6265 2.8891 17.6094 3.27719 17.6094H9.52251C10.6515 17.6094 11.7143 17.4197 12.7115 17.0412C13.7087 16.6623 14.5774 16.1473 15.3183 15.495C16.0588 14.8429 16.6453 14.0765 17.0777 13.1953C17.51 12.3146 17.7264 11.3805 17.7264 10.3939C17.7264 8.80775 17.4618 7.43755 16.9327 6.28326C16.4032 5.1295 15.6841 4.18232 14.7754 3.44213C13.8668 2.70225 12.8038 2.15595 11.587 1.80351C10.3692 1.45109 9.06416 1.27492 7.67021 1.27492ZM7.08495 2.06452C7.63293 2.06452 8.21656 2.13059 8.83554 2.26271C9.45421 2.39483 10.0645 2.60234 10.6656 2.88407C11.2668 3.16615 11.8459 3.51825 12.4028 3.94104C12.9594 4.36383 13.4508 4.86671 13.8752 5.44804C14.3 6.02972 14.6352 6.69051 14.8826 7.43039C15.1304 8.17027 15.2542 8.98994 15.2542 9.88805C15.2542 10.7871 15.1304 11.5848 14.8826 12.2807C14.6352 12.9763 14.3086 13.5847 13.902 14.1046C13.4951 14.6245 13.0355 15.0689 12.5225 15.4392C12.0095 15.8095 11.497 16.1045 10.984 16.3248C10.4714 16.5451 9.97595 16.7079 9.49868 16.8136C9.02106 16.9199 8.60576 16.9725 8.25233 16.9725C7.82757 16.9725 7.41258 16.9199 7.00597 16.8136C6.59872 16.7079 6.2365 16.5451 5.91809 16.3248C5.59968 16.1045 5.34331 15.8273 5.1491 15.4924C4.95488 15.1578 4.85751 14.7607 4.85751 14.3022V2.91044C4.85751 2.82258 4.87048 2.72558 4.89725 2.61988C4.92367 2.5145 5.00738 2.42181 5.14907 2.34222C5.29044 2.26294 5.51169 2.1967 5.81226 2.14351C6.11252 2.091 6.53665 2.06452 7.08495 2.06452ZM48.4551 7.13568C47.628 7.13568 46.9148 7.31243 46.3169 7.66517C45.7187 8.01793 45.2214 8.46349 44.8254 9.00189C44.4294 9.54028 44.1354 10.1401 43.9419 10.802C43.7483 11.4636 43.6513 12.1027 43.6513 12.7204C43.6513 14.3795 44.0492 15.6891 44.8455 16.651C45.6416 17.6125 46.7711 18.0935 48.2338 18.0935C48.9208 18.0935 49.5065 17.9916 49.9911 17.7884C50.4753 17.5853 50.8756 17.3547 51.1931 17.0984C51.5102 16.8421 51.7393 16.6031 51.88 16.3831C52.0217 16.1628 52.0921 16.0265 52.0921 15.9733C52.0921 15.8326 52.0119 15.7623 51.8537 15.7623C51.748 15.7623 51.6506 15.8197 51.5631 15.9346C51.4746 16.0489 51.3513 16.1717 51.1931 16.3042C51.0345 16.4366 50.8145 16.5548 50.5325 16.6608C50.25 16.7668 49.8543 16.8193 49.3434 16.8193C48.5328 16.8193 47.876 16.6919 47.374 16.4353C46.8719 16.1793 46.4849 15.8475 46.2117 15.4413C45.9385 15.0356 45.7537 14.5676 45.6569 14.0375C45.5598 13.508 45.5119 12.9611 45.5119 12.3952V11.8389C45.5119 11.6803 45.5284 11.5563 45.5625 11.4678H51.9921C52.221 11.4678 52.3657 11.4284 52.4272 11.3491C52.4883 11.2698 52.5195 11.1071 52.5195 10.8604C52.5195 10.5789 52.449 10.2264 52.3079 9.80392C52.1672 9.38113 51.9388 8.97163 51.622 8.57559C51.3053 8.17922 50.8872 7.84009 50.3679 7.55836C49.8487 7.27628 49.2115 7.13568 48.4551 7.13568ZM19.0838 7.56867C18.8899 7.56867 18.7316 7.57797 18.6084 7.59551C18.4849 7.61335 18.4232 7.68324 18.4232 7.80712C18.4232 7.89532 18.4756 7.9617 18.5816 8.0053C18.6873 8.04956 18.8991 8.1153 19.2159 8.20348C19.3744 8.23884 19.5423 8.2831 19.718 8.3356C19.8941 8.38845 19.9823 8.51227 19.9823 8.70617C19.9823 9.09427 19.978 9.53045 19.9694 10.015C19.9608 10.4996 19.957 10.9978 19.957 11.5091C19.957 12.0032 19.9523 12.4963 19.9441 12.9898C19.936 13.4393 19.9319 13.8888 19.9317 14.3383C19.9317 14.9028 19.9796 15.4145 20.0767 15.8727C20.1738 16.3308 20.3407 16.7272 20.5789 17.0628C20.817 17.3977 21.143 17.6523 21.5568 17.8287C21.971 18.0048 22.4869 18.0935 23.1036 18.0935C23.6327 18.0935 24.104 18.0108 24.5182 17.8463C24.9324 17.6818 25.2935 17.4986 25.602 17.2961C25.9102 17.0936 26.1616 16.9127 26.3554 16.7542C26.5493 16.596 26.699 16.5163 26.805 16.5163C26.9285 16.5163 26.9898 16.6221 26.9898 16.8332V17.4411C26.9898 17.5647 26.998 17.6655 27.0155 17.7451C27.0324 17.8247 27.0922 17.8638 27.1946 17.8638C27.3192 17.8638 27.6482 17.812 28.1819 17.708C28.7157 17.6036 29.449 17.4816 30.3831 17.3426C30.5766 17.3072 30.7136 17.2731 30.7929 17.2378C30.8715 17.2034 30.9121 17.1337 30.9121 17.0293C30.9121 16.8902 30.8101 16.8121 30.6076 16.795C30.4048 16.7771 30.0482 16.7682 29.5372 16.7682C29.414 16.7682 29.2682 16.7339 29.1011 16.6629C28.9333 16.5925 28.8503 16.4163 28.8503 16.1339C28.8503 14.7945 28.867 13.4599 28.9014 12.1296C28.9353 10.7947 28.9523 9.45938 28.9525 8.12402C28.9525 7.87762 28.8817 7.7237 28.7393 7.6616C28.5983 7.59985 28.4833 7.56869 28.3951 7.56869C28.1337 7.56874 27.8724 7.57735 27.6116 7.59451C27.3513 7.61148 27.0906 7.61992 26.8297 7.6198C26.6005 7.6198 26.3757 7.61134 26.1557 7.59451C25.9316 7.57734 25.707 7.56873 25.4822 7.56869C25.3412 7.56869 25.2089 7.58254 25.0854 7.60896C24.9621 7.63539 24.9006 7.69212 24.9006 7.7803C24.9006 7.88599 25.0017 7.97385 25.2045 8.04454C25.407 8.11491 25.5613 8.16815 25.667 8.20351C25.9841 8.29168 26.2309 8.35775 26.4066 8.40169C26.5826 8.44595 26.7192 8.48537 26.8163 8.52039C26.9131 8.5554 26.9752 8.59953 27.0016 8.65304C27.0277 8.70554 27.0413 8.76745 27.0413 8.83779C27.0413 9.78907 27.0324 10.7315 27.0155 11.665C26.9981 12.6078 26.9895 13.5508 26.9898 14.4937C26.9898 14.7576 26.9588 15.0315 26.8974 15.3133C26.8363 15.5954 26.6997 15.8459 26.4886 16.0663C26.2779 16.2863 25.9651 16.4666 25.5519 16.6077C25.1387 16.749 24.5628 16.8198 23.8246 16.8198C23.1739 16.8198 22.6636 16.6738 22.2944 16.3832C21.9247 16.0925 21.7406 15.6743 21.7406 15.128C21.7406 13.9475 21.7488 12.7716 21.7664 11.6C21.7829 10.4281 21.7911 9.25213 21.7911 8.07109C21.7911 7.87785 21.7693 7.74592 21.7251 7.67526C21.6805 7.60458 21.5696 7.56893 21.3922 7.56893C21.1973 7.56893 21.0021 7.57789 20.8069 7.59472C20.6123 7.61157 20.417 7.62001 20.2217 7.62003C20.0315 7.62024 19.8413 7.61179 19.6519 7.59472C19.463 7.57752 19.2734 7.56891 19.0837 7.56893L19.0838 7.56867ZM48.831 7.77253C49.3948 7.77253 49.8614 7.92677 50.2317 8.23495C50.6012 8.54311 50.7865 8.92565 50.7865 9.38377C50.7865 9.63052 50.756 9.83269 50.6936 9.99124C50.6321 10.1498 50.5047 10.2814 50.3111 10.3871C50.1172 10.4928 49.8437 10.5682 49.4916 10.6121C49.1391 10.6563 48.6722 10.6781 48.0909 10.6781C47.5271 10.6781 47.0908 10.6733 46.7826 10.6647C46.4744 10.6561 46.2453 10.6428 46.0957 10.625C45.946 10.6078 45.8573 10.5854 45.8309 10.5589C45.8052 10.5329 45.7917 10.4931 45.7917 10.4402C45.7917 10.2292 45.8623 9.9739 46.0033 9.67433C46.144 9.37508 46.3419 9.08438 46.5978 8.80262C46.8535 8.5212 47.1706 8.27929 47.5495 8.07649C47.928 7.87434 48.3553 7.77253 48.831 7.77253ZM35.286 19.6829C34.7562 19.6829 34.3374 19.987 34.3374 20.4844C34.3374 20.9984 34.6286 21.1502 35.237 21.3308C35.7175 21.4748 35.8862 21.5857 35.8862 21.8077C35.8862 22.0875 35.6933 22.2268 35.2906 22.2268C35.0195 22.2268 34.7355 22.0954 34.5423 21.8857L34.2347 22.1855C34.4765 22.4693 34.8385 22.65 35.2576 22.65C35.9932 22.65 36.3213 22.2964 36.3213 21.7788C36.3213 21.2652 35.9684 21.0842 35.4006 20.9118C34.9038 20.7641 34.7725 20.6653 34.7725 20.4638C34.7725 20.2709 34.9162 20.1062 35.2535 20.1062C35.5369 20.1062 35.7422 20.1968 35.9229 20.3818L36.2273 20.0731C35.9727 19.8267 35.6761 19.6829 35.286 19.6829ZM1.85959 19.7278V21.3969C1.85959 22.1896 2.2295 22.65 2.94031 22.65C3.6554 22.65 4.04579 22.2107 4.04579 21.4051V19.7278H3.61383V21.4133C3.61383 21.9392 3.40043 22.218 2.94855 22.218C2.51686 22.218 2.29107 21.9266 2.29107 21.3839V19.7277L1.85959 19.7278ZM13.4806 19.7278V22.6046H13.912V19.7278H13.4806ZM39.8627 19.7278V22.6046H40.2941V19.7278H39.8627ZM49.1038 19.7278L50.1355 21.4665V22.6046H50.5674V21.4666L51.5981 19.7278H51.1011L50.6489 20.5252C50.5466 20.7105 50.4024 20.986 50.3532 21.0924C50.3037 20.986 50.1563 20.6983 50.0575 20.5216L49.6096 19.7278H49.1038ZM7.65108 19.7285V22.6047H8.06964V21.1132C8.06964 20.953 8.06604 20.5541 8.06604 20.4474C8.11097 20.5214 8.21 20.6942 8.27971 20.8009L9.42596 22.6047H9.83728V19.7285H9.41769V21.2117C9.41769 21.3723 9.42234 21.7829 9.42234 21.8899C9.38106 21.8159 9.2579 21.6024 9.18392 21.4832L8.09083 19.7285H7.65108ZM17.3778 19.7285L18.3759 22.6047H18.8321L19.8184 19.7285H19.3585L18.7666 21.557C18.7131 21.7254 18.6305 21.9841 18.606 22.0875C18.5813 21.9841 18.4992 21.7295 18.4461 21.5611L17.8458 19.7284L17.3778 19.7285ZM23.2617 19.7285V22.6047H25.177V22.1856H23.6937V21.2778H24.5195V20.8587H23.6937V20.1475H25.115V19.7284L23.2617 19.7285ZM28.6658 19.7285V22.6047H29.089V21.4667H29.7383L30.309 22.6047H30.8071L30.2192 21.4295C30.6096 21.3308 30.8519 21.0474 30.8519 20.5873C30.8519 19.995 30.429 19.7285 29.9276 19.7285H28.6658ZM43.7595 19.7285V20.1517H44.5977V22.6047H45.0292V20.1517H45.8673V19.7285H43.7595ZM29.0889 20.1352H29.9276C30.2192 20.1352 30.4163 20.2997 30.4163 20.5996C30.4163 20.9121 30.2153 21.06 29.9276 21.06H29.0889V20.1352Z" fill="#808080"/>
</g>
</svg>
