<svg width="108" height="23" viewBox="0 0 108 23" fill="none" xmlns="http://www.w3.org/2000/svg">
<g id="Group 116">
<g id="XMLID_1_">
<path id="XMLID_3_" d="M59.0604 2.35598C59.9485 0.845664 61.6951 0.0462119 63.4121 0.0166806C64.9815 -0.0719131 66.728 0.164338 67.8228 1.40887C67.2596 2.14926 66.728 2.88965 66.1943 3.63004C65.5721 2.91918 65.07 1.91301 64.0618 1.70629C63.0851 1.41098 61.8406 1.91301 61.5748 2.98035C61.1614 4.66785 61.3976 6.41442 61.3386 8.10192H64.5364V9.99613H61.3386C61.3386 12.867 61.3386 15.74 61.3386 18.6108C61.3386 19.4398 61.4567 20.2393 61.6043 21.0387C62.3447 21.3636 63.1147 21.5429 63.9436 21.5724C63.9436 21.7791 63.9436 22.1651 63.9436 22.3718C61.3386 22.1946 58.704 22.1356 56.0989 22.3718C56.0989 22.1946 56.0989 21.8677 56.0989 21.6905C56.9279 21.5429 57.9636 21.1568 57.9931 20.1507C58.3179 16.7757 58.1112 13.3711 58.1703 9.9666C57.5185 9.9666 56.8962 9.9666 56.2465 9.9666C56.2465 9.67129 56.2465 9.4034 56.2465 9.10809C56.8983 8.81278 57.5206 8.48582 58.1408 8.13145C58.1133 6.23301 58.0247 4.10254 59.0604 2.35598Z" fill="#808080"/>
<path id="XMLID_6_" d="M106.251 0.0166016C104.564 0.400508 102.847 0.72746 101.1 0.816053C101.071 0.96371 101.041 1.29067 101.041 1.43832C101.693 1.64504 102.758 1.58598 102.788 2.47402C103.054 4.30918 102.876 6.17387 102.906 8.01113C100.419 7.59769 97.6366 7.59769 95.5041 9.16496C93.1943 10.7934 92.3949 13.814 92.6037 16.5372C92.7218 18.6382 93.787 20.8003 95.6834 21.8064C97.9341 23.0489 100.834 22.7831 102.967 21.3614C102.997 21.7748 102.997 22.2199 102.997 22.6354C104.625 22.222 106.313 21.9836 108 21.895V21.1546C105.602 20.7412 106.283 19.6443 106.106 17.7501C106.133 11.8586 106.045 5.93762 106.251 0.0166016ZM100.035 9.54887C101.041 9.54887 102.077 9.87371 102.906 10.4369C102.906 13.6347 102.906 16.803 102.906 19.9987C101.13 20.8277 98.7314 20.7686 97.3392 19.2583C96.1559 17.9843 95.947 16.1196 96.0356 14.4616C96.1538 12.9513 96.4807 11.2047 97.7822 10.2576C98.4952 9.78512 99.2651 9.5784 100.035 9.54887Z" fill="#808080"/>
<path id="XMLID_7_" d="M5.56453 1.97007C7.57687 1.85195 9.59133 1.97007 11.5741 2.26538C11.456 3.6871 11.456 5.10671 11.5741 6.52843C11.397 6.52843 11.0109 6.52843 10.8042 6.52843C10.6566 5.64038 10.4794 4.57515 9.5618 4.18913C8.16961 3.5964 6.54117 3.53734 5.09203 3.95288C3.19781 4.51609 2.87086 7.29835 4.29258 8.51124C6.06867 10.0511 8.23078 11.0573 10.0364 12.5676C12.8777 14.8183 12.4938 20.058 9.14836 21.6273C6.33656 22.9309 2.99109 22.604 0.0885937 21.775C0.118125 20.3828 0.0590625 18.9632 0 17.571C0.206719 17.571 0.622266 17.571 0.858516 17.5415C1.00617 18.4295 1.15383 19.4948 2.04187 19.9694C3.64078 20.8574 5.71219 20.946 7.37016 20.1761C9.44156 19.0223 9.05766 15.7359 7.13391 14.6094C5.44641 13.3059 3.52266 12.3587 1.95328 10.9096C0.23625 9.3107 0.0295312 6.4989 1.1243 4.51398C1.9807 2.91718 3.81797 2.11773 5.56453 1.97007Z" fill="#808080"/>
<path id="XMLID_8_" d="M17.5247 4.96094C17.6724 4.96094 17.9993 4.99047 18.1765 4.99047C18.1765 6.0557 18.1765 7.12305 18.1765 8.18828H23.0618V10.0234H18.1765C18.206 12.599 18.147 15.145 18.206 17.7205C18.2651 18.6972 18.2946 19.9122 19.2122 20.5028C20.366 21.1841 21.7287 20.7686 22.8825 20.3256C23.2369 21.1841 22.3488 21.6883 21.6992 22.0427C20.2184 22.7535 18.4423 22.8421 16.932 22.2494C15.6284 21.7748 15.0082 20.3552 14.9492 19.0516C14.8015 16.0605 14.9492 13.042 14.9787 10.0509H13.0845C13.0845 9.84414 13.0845 9.63742 13.0845 9.45812C15.0968 8.63125 16.489 6.85516 17.5247 4.96094Z" fill="#808080"/>
<path id="XMLID_11_" d="M30.5795 7.71347C28.3879 7.68394 26.1688 8.77871 25.4579 10.9999C25.6351 11.118 26.0507 11.3247 26.2279 11.445C27.0864 9.96418 29.0397 9.19425 30.609 10.0528C31.8219 10.616 31.9422 12.0946 31.9126 13.2801C29.9889 13.9024 28.004 14.3749 26.1983 15.2925C24.0362 16.4463 23.7409 19.7032 25.3103 21.4497C27.1454 23.1372 30.1956 22.8714 32.0308 21.2725C32.594 22.3673 33.8954 22.7828 35.0219 22.4559C36.028 22.2787 36.6798 21.4497 37.3316 20.7389C37.2135 20.6207 36.9772 20.355 36.8865 20.2052C36.4731 20.3233 36.028 20.6186 35.6125 20.3233C35.0788 19.9689 35.1674 19.2581 35.1083 18.6949C35.1379 16.326 35.2855 13.9572 35.1379 11.5905C35.0788 10.3776 34.5156 9.10355 33.4504 8.45175C32.5644 7.94972 31.5857 7.71347 30.5795 7.71347ZM31.8831 15.0857C31.8831 16.6846 31.8831 18.2836 31.8831 19.8825C30.8474 20.3275 29.6324 20.7705 28.5672 20.2368C27.234 19.526 27.2931 17.425 28.39 16.5665C29.4552 15.8261 30.6976 15.4992 31.8831 15.0857Z" fill="#808080"/>
<path id="XMLID_14_" d="M72.6491 7.77254C71.0502 7.80207 69.3922 8.18597 68.1203 9.22379C66.2556 10.7341 65.4266 13.2506 65.5152 15.5899C65.5152 17.6022 66.1375 19.7348 67.7068 21.0975C69.5715 22.7259 72.2947 22.9031 74.634 22.4011C77.0914 21.8674 78.9266 19.7074 79.4603 17.309C80.0235 14.7925 79.7851 11.8921 78.0681 9.87769C76.735 8.30621 74.6319 7.71348 72.6491 7.77254ZM72.6786 9.46004C73.5371 9.48957 74.3957 9.84395 74.9589 10.5253C75.965 11.7677 76.2329 13.3961 76.292 14.9655C76.292 16.653 76.0853 18.4586 75.0179 19.8508C73.9822 21.1839 71.7315 21.3611 70.5482 20.1461C69.6306 19.2876 69.2741 18.0136 69.0674 16.8302C68.8607 15.2608 68.9197 13.6029 69.3922 12.0925C69.7466 11.0864 70.4279 10.0507 71.4932 9.69418C71.8792 9.5191 72.2652 9.46004 72.6786 9.46004Z" fill="#808080"/>
<path id="XMLID_15_" d="M38.4559 8.74997C40.173 8.72044 41.89 8.54325 43.4594 7.83239C43.5184 8.24583 43.548 8.63185 43.5775 9.04529C45.3831 7.86193 47.7224 7.38732 49.7938 8.12771C51.2746 8.63185 52.3103 10.081 52.458 11.6208C52.7533 14.5508 52.3103 17.5123 52.7238 20.4422C52.7533 21.3598 53.7595 21.5665 54.4703 21.7163C54.4703 21.8935 54.4703 22.2204 54.4703 22.3976C52.0424 22.2204 47.1867 22.3976 47.1867 22.3976V21.7163C47.1867 21.7163 48.9332 21.2122 49.0513 20.7101C49.4648 18.548 49.3466 16.2994 49.3466 14.0783C49.2581 12.7451 49.2876 11.1167 48.0431 10.3193C46.6804 9.54942 45.0224 9.90591 43.6619 10.4079C43.6619 13.2493 43.6619 16.1222 43.6619 18.9931C43.6914 19.763 43.6324 20.6215 44.1365 21.2733C44.5499 21.5686 45.0836 21.6277 45.5582 21.7479C45.5582 21.9251 45.5582 22.2521 45.5582 22.4293C43.1599 22.2816 40.7615 22.1635 38.3948 22.4293C38.3948 22.2521 38.3948 21.9251 38.3948 21.7479C39.1352 21.5708 40.0823 21.364 40.2299 20.4739C40.5548 18.3729 40.3185 16.2108 40.3776 14.0783C40.3481 12.8654 40.4957 11.6504 40.2595 10.4375C40.0823 9.60849 39.1056 9.66755 38.4538 9.49036C38.4559 9.31318 38.4559 8.92716 38.4559 8.74997Z" fill="#808080"/>
<path id="XMLID_16_" d="M81.0864 8.66078C82.8034 8.63125 84.4909 8.395 86.1193 7.86133L86.1784 9.10375C87.8068 7.77062 90.2938 7.44578 92.0404 8.74937L90.2052 11.5316C89.3467 10.228 87.6297 9.9032 86.267 10.5845C86.267 10.5845 86.267 16.3579 86.267 19.2583C86.3261 19.9101 86.2375 20.7391 86.8302 21.1525C87.4229 21.5069 88.1338 21.4773 88.7835 21.5659C88.7835 21.7727 88.7835 22.1587 88.7835 22.3654C86.1489 22.1882 83.5438 22.1587 80.9092 22.3654V21.5659C81.7677 21.4183 82.6262 21.1209 82.7739 20.6188C83.1282 19.3764 82.9511 18.0728 83.0101 16.7692C82.9806 14.7273 83.0692 12.6834 82.9511 10.671C82.9511 9.69437 81.8268 9.60578 81.0864 9.45812C81.0864 9.22398 81.0864 8.92656 81.0864 8.66078Z" fill="#808080"/>
</g>
</g>
</svg>
