<svg width="49" height="23" viewBox="0 0 49 23" fill="none" xmlns="http://www.w3.org/2000/svg">
<g id="Group 110">
<path id="Vector" d="M0.0137569 0V0.524135C1.49301 0.524135 2.01676 1.17129 2.01676 3.32856V14.3926C2.01676 16.7348 1.24637 17.1355 0.0135603 17.1355V17.6598H6.36235V17.1355C4.8829 17.1355 4.35916 16.5192 4.35916 14.3311V9.39983C5.65368 9.55371 6.30064 9.58476 7.07123 9.58476C11.0778 9.58476 13.2972 7.95163 13.2972 5.02359C13.297 2.58884 11.3245 0 6.45492 0H0.0139534H0.0137569ZM4.35896 0.678407H6.54729C9.78329 0.678407 10.8316 3.20534 10.8316 5.0853C10.8316 7.48921 9.16699 8.90714 6.54729 8.90714C5.62263 8.90714 5.1602 8.87609 4.35896 8.59879V0.678407ZM16.995 6.44133C13.9135 6.44133 11.5092 9.03036 11.5092 12.3279C11.5092 15.6256 13.9746 17.9986 17.3958 17.9986C19.3066 17.9986 20.5702 17.3517 21.8954 15.6564V14.8546C20.3234 16.6115 19.5532 17.1353 18.0427 17.1353C16.5635 17.1353 13.6356 15.9031 13.6969 11.0027H21.7103C21.8646 8.47538 19.5222 6.44114 16.9948 6.44114L16.995 6.44133ZM25.3773 6.44133L21.9872 6.78054V7.30447C23.4665 7.30447 23.8063 7.58197 23.8063 8.90714V15.0401C23.8063 17.0123 23.4358 17.1355 21.9872 17.1355V17.6598H27.7505V17.1355C26.117 17.1355 25.9016 16.7041 25.9016 15.0401V9.70818C26.9802 8.25959 27.9357 7.58177 29.0142 7.58177C30.1851 7.58177 31.449 8.3215 31.449 10.0782V15.7798C31.449 16.7969 31.0481 17.1355 29.569 17.1355V17.6598H41.0953V17.1355C39.4622 17.1355 39.246 16.7041 39.246 15.0401V9.70838C40.3249 8.25959 41.2798 7.58197 42.359 7.58197C43.5299 7.58197 44.7937 8.32169 44.7937 10.0782V15.7798C44.7937 16.7969 44.3934 17.1355 42.914 17.1355V17.6598H48.739V17.1355C47.1978 17.1355 46.8897 16.7045 46.8897 15.2866V10.3553C46.8897 7.73565 45.0093 6.44133 43.1911 6.44133C41.8044 6.44133 40.5407 7.1502 39.2462 8.62965V6.44133H38.7226L35.3321 6.78073V7.30467C36.8118 7.30467 37.1508 7.58197 37.1508 8.90714V15.0401C37.1508 16.9967 36.7833 17.1331 35.3632 17.1351C33.8505 17.1292 33.5449 16.6945 33.5449 15.2866V10.3553C33.5449 7.73565 31.6652 6.44133 29.8467 6.44133C28.4602 6.44133 27.1963 7.1502 25.902 8.62965V6.44133H25.3777H25.3773ZM16.7175 7.08849C18.1046 7.08849 19.7378 8.07466 19.645 10.4786H13.6969C13.8203 8.44452 14.8995 7.08849 16.7175 7.08849ZM23.65 19.2098C23.5032 19.2098 22.8879 19.2867 22.7028 20.0315H22.3738L22.3427 20.1785H22.6749L22.1745 22.65H22.3319C22.531 22.1186 22.8108 21.0102 22.9822 20.1785H23.4401L23.5238 20.1048L23.538 20.0315H23.0245L23.0624 19.8635C23.1467 19.4861 23.3037 19.3427 23.5134 19.3427C23.6602 19.3427 23.7721 19.4513 23.8208 19.5457L23.9084 19.5034L23.9509 19.2727C23.8982 19.2238 23.7302 19.2098 23.6502 19.2098H23.65ZM0 19.3323V19.4232C0.314836 19.4618 0.300686 19.4441 0.300686 19.7693V20.8115C0.300686 21.4439 0.531408 21.8216 1.27624 21.8216C1.72727 21.8216 2.2064 21.5416 2.2064 20.7899V19.8043C2.2064 19.731 2.22016 19.6716 2.22704 19.6156C2.24453 19.4895 2.3597 19.4403 2.52773 19.423V19.3323H1.70251V19.4232C1.86681 19.4403 1.98551 19.4895 2.0032 19.6154C2.01007 19.6716 2.02422 19.731 2.02422 19.8043V20.7759C2.02422 21.3354 1.77228 21.6572 1.29334 21.6572C0.77235 21.6572 0.639694 21.2828 0.639694 20.7934V19.7695C0.639694 19.4441 0.625544 19.4618 0.94038 19.4232V19.3323H0ZM25.0159 19.3323V19.4232C25.3307 19.4618 25.3168 19.4441 25.3168 19.7693V21.3427C25.3168 21.6676 25.3305 21.6505 25.0161 21.689V21.7796H25.9563V21.689C25.6418 21.6505 25.6558 21.6674 25.6558 21.3427V19.4439H25.8688C26.2609 19.4439 26.4491 19.6259 26.4491 20.0177C26.4491 20.4023 26.2467 20.6641 25.8093 20.6572V20.727C26.3444 20.7588 26.799 20.4861 26.799 19.9827C26.799 19.5628 26.512 19.3323 25.9317 19.3323H25.0159ZM13.2498 19.8589C12.9393 19.8589 12.6697 20.0504 12.6697 20.2931C12.6697 20.5871 12.8505 20.6924 12.9963 20.7897C13.4012 21.0568 13.4949 21.1996 13.4949 21.3749C13.4949 21.5719 13.3389 21.7175 13.147 21.7175C12.9393 21.7175 12.7426 21.599 12.7131 21.2999H12.6424V21.6878C12.6424 21.7092 12.651 21.72 12.662 21.7259C12.809 21.7831 12.9654 21.8123 13.1231 21.8118C13.4471 21.8118 13.7759 21.6338 13.7759 21.3132C13.7759 21.089 13.684 20.9516 13.3982 20.7386C13.1282 20.5362 12.9395 20.4224 12.9395 20.2335C12.9395 20.034 13.0794 19.9533 13.2363 19.9533C13.4519 19.9533 13.5546 20.1046 13.5763 20.2931H13.6462V19.9393C13.6462 19.926 13.6437 19.9157 13.6274 19.9098C13.5197 19.8725 13.3656 19.8587 13.2496 19.8587L13.2498 19.8589ZM34.6791 19.8589C34.3686 19.8589 34.0993 20.0504 34.0993 20.2931C34.0993 20.5871 34.2798 20.6924 34.4256 20.7897C34.8306 21.0568 34.9248 21.1996 34.9248 21.3749C34.9248 21.5719 34.7681 21.7175 34.5769 21.7175C34.369 21.7175 34.1722 21.599 34.1426 21.2999H34.072V21.6878C34.072 21.7092 34.0805 21.72 34.0909 21.7259C34.2316 21.7794 34.3798 21.8118 34.5527 21.8118C34.8764 21.8118 35.2052 21.6338 35.2052 21.3132C35.2052 21.089 35.1138 20.9516 34.8275 20.7386C34.5578 20.5362 34.3688 20.4224 34.3688 20.2335C34.3688 20.034 34.5093 19.9533 34.6655 19.9533C34.8813 19.9533 34.9843 20.1046 35.0055 20.2931H35.0759V19.9393C35.0759 19.926 35.0733 19.9157 35.057 19.9098C34.9493 19.8725 34.7952 19.8587 34.6789 19.8587L34.6791 19.8589ZM42.0331 19.8589C41.8091 20.4548 41.494 21.3368 41.3777 21.5742C41.3345 21.6632 41.2566 21.7094 41.1839 21.7094V21.7796H41.6745V21.7094C41.556 21.7094 41.5043 21.6202 41.5396 21.5151L41.6635 21.1538H42.3515L42.4678 21.5017C42.5111 21.6204 42.495 21.7092 42.3248 21.7092V21.7796H42.9535V21.7092C42.8375 21.7092 42.7941 21.6232 42.7347 21.4716C42.6429 21.2319 42.3676 20.4012 42.1844 19.8587L42.0331 19.8589ZM47.8035 19.8589C47.5801 20.4548 47.2639 21.3368 47.1479 21.5742C47.1047 21.6632 47.0265 21.7094 46.9538 21.7094V21.7796H47.4451V21.7094C47.326 21.7094 47.2751 21.6202 47.3101 21.5151L47.4343 21.1538H48.1225L48.2377 21.5017C48.2809 21.6204 48.2652 21.7092 48.0954 21.7092V21.7796H48.7237V21.7092C48.6075 21.7092 48.5647 21.6232 48.5053 21.4716C48.4134 21.2319 48.1384 20.4012 47.9549 19.8587L47.8035 19.8589ZM2.76749 19.8912V19.9613C2.92137 19.9613 3.00529 20.0478 3.08075 20.1445V21.4156C3.08075 21.472 3.06975 21.5176 3.06424 21.5609C3.05088 21.6581 2.96205 21.6965 2.83234 21.7094V21.7796H3.49346V21.7094C3.3154 21.6963 3.22363 21.6583 3.21007 21.5609C3.20476 21.5176 3.19395 21.472 3.19395 21.4156V20.2231C3.63378 20.7409 4.07871 21.2725 4.50754 21.7796H4.59931V20.2553C4.59931 20.1985 4.61032 20.1531 4.61582 20.1099C4.62899 20.0126 4.72077 19.9749 4.84772 19.9613V19.8912H4.18661V19.9613C4.36466 19.9749 4.45624 20.0124 4.4698 20.1099C4.4753 20.1531 4.48592 20.1985 4.48592 20.2553V21.3643H4.48081C4.07891 20.876 3.6607 20.3793 3.25861 19.8912H2.76768H2.76749ZM5.398 19.8912V19.9613C5.64071 19.9908 5.6299 19.9776 5.6299 20.2286V21.4422C5.6299 21.6931 5.6409 21.6798 5.398 21.7094V21.7796H6.12397V21.7094C5.88106 21.6798 5.89167 21.6931 5.89167 21.4422V20.2284C5.89167 19.9776 5.88106 19.991 6.12397 19.9613V19.8912H5.398ZM6.53923 19.8912V19.9613C6.66874 19.9613 6.75226 20.0452 6.8521 20.3337C7.01639 20.7922 7.19995 21.3132 7.36444 21.7796H7.50221C7.7288 21.2268 7.95795 20.6761 8.18474 20.1233C8.24115 19.9884 8.33017 19.9613 8.40859 19.9613V19.8912H7.82569V19.9613C8.00905 19.9613 8.07921 20.0452 8.0118 20.215C7.84436 20.6277 7.68006 21.0428 7.50751 21.4555C7.37163 21.0587 7.23753 20.6614 7.10522 20.2634C7.0162 20.0048 7.12429 19.9613 7.27247 19.9613V19.8912H6.53923ZM8.82424 19.8912V19.9613C9.06695 19.9908 9.05614 19.9776 9.05614 20.2286V21.4422C9.05614 21.6931 9.06695 21.6798 8.82424 21.7094V21.7796H10.1512L10.2322 21.2942H10.1622C10.0384 21.5831 10.0569 21.6931 9.66597 21.6931C9.42326 21.6931 9.31792 21.6742 9.31792 21.4453V20.8353H9.54432C9.72512 20.8353 9.78722 20.93 9.79273 21.0888H9.86249V20.5142H9.79273C9.78722 20.6816 9.71431 20.749 9.54432 20.749H9.31792V19.9774H9.68483C9.879 19.9774 9.93305 20.1258 9.95997 20.3257H10.0299V19.8912H8.82424ZM10.6451 19.8912V19.9613C10.888 19.9908 10.877 19.9776 10.877 20.2286V21.4422C10.877 21.6931 10.888 21.6798 10.6451 21.7094V21.7796H11.3706V21.7094C11.1277 21.6798 11.1387 21.6931 11.1387 21.4422V20.9432H11.3923C11.7185 21.4856 11.805 21.7796 11.9643 21.7796H12.2422V21.7446C12.1479 21.688 11.9968 21.4989 11.862 21.302L11.5974 20.9001C11.8052 20.819 11.9752 20.6277 11.9752 20.3499C11.9752 20.0344 11.7026 19.8912 11.4302 19.8912H10.6451ZM14.2627 19.8912V19.9613C14.5058 19.9908 14.4946 19.9776 14.4946 20.2286V21.4422C14.4946 21.6931 14.5058 21.6798 14.2627 21.7094V21.7796H14.9883V21.7094C14.7458 21.6798 14.7568 21.6931 14.7568 21.4422V20.2284C14.7568 19.9776 14.7458 19.991 14.9883 19.9613V19.8912H14.2627ZM15.4442 19.8912L15.3713 20.3039H15.4389C15.528 20.1258 15.5822 19.9774 15.8171 19.9774H16.0592V21.4422C16.0592 21.6931 16.0704 21.6796 15.8273 21.7094V21.7796H16.5536V21.7092C16.3105 21.6798 16.3213 21.6931 16.3213 21.4422V19.9774H16.5639C16.7987 19.9774 16.8528 20.1256 16.9416 20.3037H17.0092L16.9363 19.891L15.4442 19.8912ZM17.3224 19.8912V19.9613C17.4463 19.9613 17.5217 20.0285 17.6108 20.2038L18.0264 21.0269V21.4422C18.0264 21.6931 18.0366 21.6798 17.7941 21.7094V21.7796H18.5201V21.7094C18.2776 21.6798 18.2878 21.6931 18.2878 21.4422V21.1405C18.2878 21.0729 18.2933 20.9972 18.3204 20.9432L18.7705 20.126C18.8436 19.9963 18.9163 19.9613 18.9917 19.9613V19.8912H18.436V19.9613C18.5952 19.9613 18.6816 20.0395 18.5898 20.2038L18.2178 20.8811L17.8908 20.2038C17.8238 20.0639 17.8051 19.9613 18.0099 19.9613V19.8912H17.3224ZM27.2824 19.8912V19.9613C27.5253 19.9908 27.5145 19.9776 27.5145 20.2286V21.4422C27.5145 21.6931 27.5253 21.6798 27.2824 21.7094V21.7796H28.6098L28.6907 21.2942H28.6204C28.4966 21.5831 28.5156 21.6931 28.1241 21.6931C27.8816 21.6931 27.7763 21.6742 27.7763 21.4453V20.8353H28.0029C28.1837 20.8353 28.2458 20.93 28.2509 21.0888H28.3211V20.5142H28.2509C28.2458 20.6816 28.1729 20.749 28.0029 20.749H27.7763V19.9774H28.1434C28.3376 19.9774 28.391 20.1258 28.4178 20.3257H28.4885V19.8912H27.2824ZM29.0924 19.8912V19.9613C29.2465 19.9613 29.33 20.0478 29.4053 20.1445V21.4156C29.4053 21.472 29.3949 21.5176 29.3892 21.5609C29.3756 21.6581 29.2868 21.6965 29.1579 21.7094V21.7796H29.8182V21.7094C29.64 21.6963 29.5488 21.6583 29.5352 21.5609C29.5299 21.5176 29.5187 21.472 29.5187 21.4156V20.2231C29.9585 20.7409 30.4037 21.2725 30.8325 21.7796H30.9243V20.2553C30.9243 20.1985 30.9353 20.1531 30.9408 20.1099C30.9537 20.0126 31.0459 19.9749 31.1723 19.9613V19.8912H30.5115V19.9613C30.6902 19.9749 30.7816 20.0124 30.7949 20.1099C30.8002 20.1531 30.8114 20.1985 30.8114 20.2553V21.3643H30.8054C30.4037 20.876 29.9854 20.3793 29.583 19.8912H29.0924ZM31.5097 19.8912V19.9613C31.6636 19.9613 31.7471 20.0478 31.8224 20.1445V21.4156C31.8224 21.472 31.8122 21.5176 31.8063 21.5609C31.7927 21.6581 31.7039 21.6965 31.575 21.7094V21.7796H32.2355V21.7094C32.0574 21.6963 31.9658 21.6583 31.9523 21.5609C31.9472 21.5176 31.9362 21.472 31.9362 21.4156V20.2231C32.3758 20.7409 32.8207 21.2725 33.2496 21.7796H33.3413V20.2553C33.3413 20.1985 33.3521 20.1531 33.3578 20.1099C33.3708 20.0126 33.4632 19.9749 33.5897 19.9613V19.8912H32.9286V19.9613C33.1073 19.9749 33.1989 20.0124 33.2124 20.1099C33.2175 20.1531 33.2285 20.1985 33.2285 20.2553V21.3643H33.2226C32.8209 20.876 32.4031 20.3793 32.0006 19.8912H31.5097ZM35.6214 19.8912V19.9613C35.7456 19.9613 35.8209 20.0285 35.9099 20.2038L36.3254 21.0269V21.4422C36.3254 21.6931 36.3362 21.6798 36.0931 21.7094V21.7796H36.8191V21.7094C36.5766 21.6798 36.5872 21.6931 36.5872 21.4422V21.1405C36.5872 21.0729 36.5923 20.9972 36.6194 20.9432L37.07 20.126C37.1426 19.9963 37.2155 19.9613 37.2915 19.9613V19.8912H36.7354V19.9613C36.8945 19.9613 36.9804 20.0395 36.8888 20.2038L36.5168 20.8811L36.1906 20.2038C36.123 20.0639 36.1041 19.9613 36.3093 19.9613V19.8912H35.6214ZM37.7333 19.8912V19.9613C37.9766 19.9908 37.9654 19.9776 37.9654 20.2286V21.4422C37.9654 21.6931 37.9766 21.6798 37.7333 21.7094V21.7796H39.0579L39.1393 21.2942H39.0713C38.9475 21.5831 38.9638 21.6931 38.5723 21.6931C38.3325 21.6931 38.2272 21.6744 38.2272 21.4856V20.2284C38.2272 19.9776 38.2164 19.991 38.4595 19.9613V19.8912H37.7331H37.7333ZM39.3468 19.8912V19.9613C39.4765 19.9613 39.5598 20.0452 39.6597 20.3337C39.8319 20.8153 40.0028 21.2972 40.1726 21.7796H40.3096C40.5366 21.2268 40.7655 20.6761 40.9925 20.1233C41.0487 19.9884 41.1385 19.9613 41.2166 19.9613V19.8912H40.6335V19.9613C40.8176 19.9613 40.8874 20.0452 40.8198 20.215C40.6527 20.6277 40.4876 21.0428 40.3153 21.4555C40.1795 21.0587 40.0454 20.6613 39.913 20.2634C39.824 20.0048 39.9324 19.9613 40.0808 19.9613V19.8912H39.3468ZM43.2911 19.8912V19.9613C43.4448 19.9613 43.5287 20.0478 43.604 20.1445V21.4156C43.604 21.472 43.593 21.5176 43.5874 21.5609C43.5739 21.6581 43.4853 21.6965 43.3555 21.7094V21.7796H44.0167V21.7094C43.8386 21.6963 43.747 21.6583 43.7335 21.5609C43.7278 21.5176 43.7174 21.472 43.7174 21.4156V20.2231C44.1564 20.7409 44.6023 21.2725 45.0311 21.7796H45.1225V20.2553C45.1225 20.1985 45.1337 20.1531 45.139 20.1099C45.1524 20.0126 45.2438 19.9749 45.3709 19.9613V19.8912H44.7098V19.9613C44.8879 19.9749 44.9796 20.0124 44.9932 20.1099C44.9987 20.1531 45.0093 20.1985 45.0093 20.2553V21.3643H45.0038C44.6021 20.876 44.1841 20.3793 43.7822 19.8912H43.2911ZM45.8135 19.8912V19.9613C46.056 19.9908 46.0456 19.9776 46.0456 20.2286V21.4422C46.0456 21.6931 46.0558 21.6798 45.8135 21.7094V21.7796H46.5387V21.7094C46.2964 21.6798 46.3068 21.6931 46.3068 21.4422V20.2284C46.3068 19.9776 46.2964 19.991 46.5387 19.9613V19.8912H45.8135ZM11.1383 19.9774H11.3459C11.5428 19.9774 11.7047 20.0802 11.7047 20.3744C11.7047 20.6794 11.5966 20.8573 11.362 20.8573H11.1383V19.9774ZM21.1985 19.9898C20.6149 19.9898 20.2198 20.6751 20.2198 21.1332C20.2198 21.4616 20.3421 21.8218 20.7894 21.8218C21.4574 21.8218 21.7647 21.0035 21.7647 20.6189C21.7647 20.3045 21.6639 19.9898 21.1985 19.9898ZM21.1675 20.0733C21.2233 20.0733 21.4432 20.0871 21.4432 20.4511C21.4432 21.0591 21.2308 21.7167 20.832 21.7167C20.5734 21.7167 20.5416 21.3881 20.5416 21.2065C20.5416 20.7516 20.7898 20.0733 21.1675 20.0733ZM42.0249 20.1744H42.03L42.3167 21.0515H41.7041L42.0249 20.1744ZM47.7951 20.1744H47.801L48.0865 21.0515H47.4744L47.7951 20.1744Z" fill="#808080"/>
</g>
</svg>
